<?xml version="1.0" ?><svg id="Layer_2" style="enable-background:new 0 0 44 44;" version="1.1" viewBox="0 0 44 44" xml:space="preserve" xmlns="http://www.w3.org/2000/svg" xmlns:xlink="http://www.w3.org/1999/xlink"><g><path d="M41.7,5.8c-0.1-0.5-0.6-0.9-1.1-0.8c-0.5,0.1-0.9,0.6-0.8,1.1l0.2,0.9L18.8,9.2c-0.4-1.4-1.8-2.3-3.3-2.1l0,0l-0.2-1   c-0.1-0.5-0.6-0.9-1.1-0.8c-0.5,0.1-0.9,0.6-0.8,1.1l0.2,1l0,0c-0.8,0.1-1.5,0.6-2,1.2C11.2,9,11,9.5,10.9,9.9L10.1,10   c-0.2,0-0.3,0-0.5,0.1c-2.1,0.3-3.9,1.5-5.1,3.2C3.5,14.6,3,16.3,3,18c0,0,0,0,0,0c-1.1,0-2,0.9-2,2s0.9,2,2,2   c0.3,0,0.7-0.1,0.9-0.2c0.8,1.6,2.2,2.9,3.9,3.6L4.5,36.3C4.3,36.7,4,37,3.5,37H1c-0.6,0-1,0.4-1,1c0,0.6,0.4,1,1,1h2.5   c1.3,0,2.5-0.9,2.9-2.1l3.4-11c0.8,0.1,1.6,0.1,2.4,0c0.3-0.1,0.6-0.2,0.7-0.5C14.2,22.7,17,21,20,21c4.4,0,8,3.6,8,8s-3.6,8-8,8   s-8-3.6-8-8c0-0.6-0.4-1-1-1s-1,0.4-1,1c0,5.5,4.5,10,10,10s10-4.5,10-10s-4.5-10-10-10c-3.6,0-6.9,1.9-8.7,5   c-3,0.3-5.7-1.8-6.2-4.8l-0.1-0.4c-0.3-1.5,0.1-3,1-4.3c0.9-1.3,2.3-2.1,3.8-2.4c0.1,0,0.2,0,0.4,0l30-2.9l1.3,8L28.8,20   c-0.5,0.1-0.9,0.7-0.8,1.2c0.1,0.5,0.7,0.9,1.2,0.7l12.6-2.9L42,20c0.1,0.5,0.5,0.8,1,0.8c0.1,0,0.1,0,0.2,0   c0.5-0.1,0.9-0.6,0.8-1.1L41.7,5.8z M13.7,9.4l2-0.3c0.3-0.1,0.6,0.1,0.9,0.3l-3.4,0.3C13.3,9.6,13.5,9.4,13.7,9.4z"/><path d="M25,29c0-2.8-2.2-5-5-5s-5,2.2-5,5s2.2,5,5,5S25,31.8,25,29z M17,29c0-1.7,1.3-3,3-3s3,1.3,3,3c0,1.7-1.3,3-3,3   S17,30.7,17,29z"/></g></svg>