<?xml version="1.0" ?><svg viewBox="0 0 32 32" xmlns="http://www.w3.org/2000/svg"><title/><g data-name="Layer 5" id="Layer_5"><path d="M26,27.0506V26.5a3.495,3.495,0,0,0-3-3.44946V21.43115a.50066.50066,0,0,0-.2959-.45654C20.1676,19.84271,18.96405,17.5484,19.00165,14H20a2,2,0,0,0,0-4h-.00519A4.95371,4.95371,0,0,0,21,7,5,5,0,0,0,11,7a4.95349,4.95349,0,0,0,1.00525,3H12a2,2,0,0,0,0,4h.99878c.03711,3.54889-1.1673,5.8432-3.70239,6.97461A.50031.50031,0,0,0,9,21.43115v1.61938A3.495,3.495,0,0,0,6,26.5v.5506A2.504,2.504,0,0,0,4,29.5a.49971.49971,0,0,0,.5.5h23a.49971.49971,0,0,0,.5-.5A2.50379,2.50379,0,0,0,26,27.0506ZM16,3a4.00427,4.00427,0,0,1,4,4,3.94911,3.94911,0,0,1-1.36035,3H13.36084A3.948,3.948,0,0,1,12,7,4.00458,4.00458,0,0,1,16,3Zm-5,9a1.0013,1.0013,0,0,1,1-1h8a1,1,0,0,1,0,2H12A1.0013,1.0013,0,0,1,11,12Zm2.99689,2h4.0058c-.03363,3.79645,1.298,6.40955,3.99731,7.748V23H10V21.74854C12.69891,20.41,14.03088,17.79694,13.99689,14ZM7,26.5A2.50294,2.50294,0,0,1,9.5,24h13A2.50263,2.50263,0,0,1,25,26.5V27H7ZM5.08545,29A1.5031,1.5031,0,0,1,6.5,28h19a1.50151,1.50151,0,0,1,1.41406,1Z"/></g></svg>