<?xml version="1.0" ?><svg data-name="Layer 1" id="Layer_1" viewBox="0 0 64 64" xmlns="http://www.w3.org/2000/svg"><title/><path d="M13,62H51a1,1,0,0,0,1-1V58a6,6,0,0,0-5-5.91V51a4,4,0,0,0-3-3.86V45a2,2,0,0,0-1.18-1.82c-1.35-5.33-.41-7.74,1-11.31A40.87,40.87,0,0,0,47,18.07a13,13,0,0,0-3.85-9.84A20,20,0,0,0,29,2a1,1,0,0,0-1,1.24l.83,3.34c-6.67,4.75-16.85,12.75-14.7,16A6.25,6.25,0,0,0,16,24.07a8.52,8.52,0,0,1,1,.65l.26.24c1,.92,2,1.8,4.13.8a15.72,15.72,0,0,1,4-1,23.77,23.77,0,0,0,2.42-.48,12.15,12.15,0,0,1-4.46,7C19.23,34.54,20.26,41,20.81,43.4A2,2,0,0,0,20,45v2.14A4,4,0,0,0,17,51v1.09A6,6,0,0,0,12,58v3A1,1,0,0,0,13,62Zm9-17H42v2H22Zm2.63-12.22A13.67,13.67,0,0,0,30,23.3a5,5,0,0,0,2-3.05A1,1,0,1,0,30,19.76c-.55,2.18-2.07,2.53-4.93,3a17.49,17.49,0,0,0-4.56,1.19c-1,.44-1,.37-1.94-.46l-.27-.25a9.32,9.32,0,0,0-1.22-.86,6.55,6.55,0,0,1-1.26-.91c-.4-1.44,6.48-7.82,14.74-13.64A1,1,0,0,0,31,6.76l-.67-2.7A18.4,18.4,0,0,1,41.69,9.59,11.23,11.23,0,0,1,45,17.93a39.12,39.12,0,0,1-3,13.21c-1.38,3.51-2.5,6.34-1.24,11.86H22.77C22.31,41,21.36,35.39,24.63,32.78ZM19,51a2,2,0,0,1,2-2H43a2,2,0,0,1,2,2v1H19Zm-5,7a4,4,0,0,1,4-4H46a4,4,0,0,1,4,4v2H14Z"/></svg>